<svg width="64" height="64" viewBox="0 0 64 64" fill="none" xmlns="http://www.w3.org/2000/svg">
  <rect width="64" height="64" rx="12" fill="#00103B"/>
  <g transform="translate(5 5) scale(2)">
    <path d="M25.1798 13.5C25.1798 7.0494 19.9506 1.8202 13.5 1.8202C7.0494 1.8202 1.8202 7.0494 1.8202 13.5C1.8202 19.9505 7.0494 25.1797 13.5 25.1797V27C6.0442 27 0 20.9558 0 13.5C0 6.0441 6.0442 0 13.5 0C20.9558 0 27 6.0441 27 13.5C27 20.9558 20.9558 27 13.5 27V25.1797C19.9506 25.1797 25.1798 19.9505 25.1798 13.5Z" fill="url(#favicon-gradient-outer)"/>
    <path d="M25.1798 13.4991C25.1797 11.7453 24.1355 9.9499 22.0225 8.513C19.9191 7.0827 16.9113 6.1394 13.5 6.1394C10.0887 6.1394 7.0809 7.0827 4.9775 8.513C2.8645 9.9499 1.8203 11.7453 1.8202 13.4991C1.8202 15.2529 2.8645 17.0483 4.9775 18.4852C7.0809 19.9155 10.0887 20.8588 13.5 20.8588V22.679L13.1516 22.6761C5.9726 22.5524 0.1863 18.6179 0.0044 13.7361L0 13.4991C0.0001 8.4292 6.0442 4.3192 13.5 4.3192C20.9558 4.3192 26.9999 8.4292 27 13.4991L26.9956 13.7361C26.8107 18.6966 20.8393 22.679 13.5 22.679V20.8588C16.9113 20.8588 19.9191 19.9155 22.0225 18.4852C24.1355 17.0483 25.1798 15.2529 25.1798 13.4991Z" fill="url(#favicon-gradient-middle)"/>
    <path d="M13.5 8.9998C20.9557 8.9998 26.9998 11.0145 27 13.4997L26.9956 13.6159C26.8109 16.0475 20.8395 17.9999 13.5 17.9999V16.1797C17.0867 16.1797 20.2585 15.6923 22.4705 14.9549C23.5859 14.5831 24.3573 14.1804 24.8124 13.8218C24.9987 13.6749 25.0949 13.5664 25.1436 13.4997C25.0949 13.433 24.9986 13.3247 24.8124 13.178C24.3573 12.8193 23.5859 12.4166 22.4705 12.0448C20.2585 11.3075 17.0867 10.82 13.5 10.82C9.9133 10.82 6.7415 11.3075 4.5295 12.0448C3.4141 12.4166 2.6427 12.8193 2.1876 13.178C2.0013 13.3248 1.9048 13.4331 1.8561 13.4997C1.9048 13.5664 2.0011 13.6748 2.1876 13.8218C2.6427 14.1804 3.4141 14.5831 4.5295 14.9549C6.7415 15.6923 9.9133 16.1797 13.5 16.1797V17.9999L13.1516 17.9984C5.8568 17.9368 0 15.9462 0 13.4997C0.0002 11.0145 6.0443 8.9998 13.5 8.9998Z" fill="url(#favicon-gradient-inner)"/>
  </g>
  <defs>
    <linearGradient id="favicon-gradient-outer" x1="13.5" y1="0" x2="13.5" y2="27" gradientUnits="userSpaceOnUse">
      <stop stop-color="#C5D7E2"/>
      <stop offset="0.275" stop-color="#96D8FD"/>
      <stop offset="0.58" stop-color="#96D8FD"/>
      <stop offset="1" stop-color="#54F466"/>
    </linearGradient>
    <linearGradient id="favicon-gradient-middle" x1="13.5" y1="0" x2="13.5" y2="27" gradientUnits="userSpaceOnUse">
      <stop stop-color="#C5D7E2"/>
      <stop offset="0.275" stop-color="#96D8FD"/>
      <stop offset="0.58" stop-color="#96D8FD"/>
      <stop offset="1" stop-color="#54F466"/>
    </linearGradient>
    <linearGradient id="favicon-gradient-inner" x1="13.5" y1="0" x2="13.5" y2="27" gradientUnits="userSpaceOnUse">
      <stop stop-color="#C5D7E2"/>
      <stop offset="0.275" stop-color="#96D8FD"/>
      <stop offset="0.58" stop-color="#96D8FD"/>
      <stop offset="1" stop-color="#54F466"/>
    </linearGradient>
  </defs>
</svg>
