<svg width="230" height="43" viewBox="0 0 230 43" fill="none" xmlns="http://www.w3.org/2000/svg">
<path d="M20.9873 35.4713V36.3711L41.9555 31.2047V23.01C24.954 20.1462 20.9873 28.7763 20.9873 35.4713Z" fill="black"/>
<path d="M21.4142 10.3455C23.0629 16.5277 29.4736 20.2236 35.8455 19.3431L31.0933 0.186768H19.7363C19.7363 0.186768 19.8818 4.60821 21.4142 10.3455Z" fill="black"/>
<path d="M10.1834 20.6589C16.3808 19.0142 20.9681 13.4317 20.9681 6.73668V5.83691L0 11.0033V22.3327C0 22.3327 4.43221 22.1876 10.1834 20.6589Z" fill="black"/>
<path d="M20.5314 31.8625C18.8827 25.6803 13.2867 21.104 6.5753 21.104H5.67334L10.8523 42.0212H22.2093C22.2093 42.0212 22.0638 37.5998 20.5314 31.8625Z" fill="black"/>
<path d="M219.811 5.90527H224.988V12.8285H228.973V17.1632H224.988V23.2647C224.988 24.0728 225.118 24.7028 225.378 25.1547C225.638 25.593 226.049 25.8121 226.61 25.8121C227.035 25.8121 227.384 25.7299 227.658 25.5656C227.932 25.3875 228.096 25.2643 228.151 25.1958L230 28.9348C229.918 29.0169 229.651 29.1607 229.199 29.3662C228.761 29.5716 228.192 29.7565 227.494 29.9209C226.809 30.0989 226.035 30.1879 225.172 30.1879C223.625 30.1879 222.344 29.7428 221.331 28.8526C220.317 27.9487 219.811 26.5517 219.811 24.6617V5.90527Z" fill="black"/>
<path d="M208.449 12.3355C209.599 12.3355 210.722 12.5751 211.818 13.0545C212.914 13.5201 213.811 14.2666 214.509 15.2938C215.221 16.3209 215.577 17.6631 215.577 19.3203V29.6949H210.339V20.2242C210.339 18.841 210.024 17.8138 209.394 17.1427C208.778 16.4716 207.949 16.136 206.908 16.136C206.21 16.136 205.538 16.3278 204.895 16.7113C204.265 17.0811 203.744 17.6015 203.333 18.2726C202.936 18.93 202.738 19.6833 202.738 20.5324V29.6949H197.499V1.42676H202.738V15.5197C202.875 15.0541 203.21 14.5747 203.744 14.0817C204.278 13.5886 204.956 13.1778 205.778 12.8491C206.6 12.5067 207.49 12.3355 208.449 12.3355Z" fill="black"/>
<path d="M164.845 29.695V12.8286H170.043V29.695H164.845Z" fill="black"/>
<path d="M160.127 29.6949H154.888V1.42676H160.127V29.6949Z" fill="black"/>
<path d="M137.234 38.241H132.057V12.8285H137.296V15.5608C137.46 15.1636 137.816 14.7117 138.364 14.2049C138.912 13.6982 139.624 13.2599 140.501 12.8901C141.391 12.5203 142.404 12.3354 143.541 12.3354C145.143 12.3354 146.54 12.7258 147.732 13.5064C148.923 14.2871 149.841 15.3554 150.485 16.7113C151.142 18.0534 151.471 19.5737 151.471 21.272C151.471 22.9702 151.129 24.4973 150.444 25.8532C149.759 27.1954 148.807 28.2568 147.588 29.0375C146.369 29.8044 144.952 30.1879 143.336 30.1879C142.117 30.1879 141.069 29.9688 140.192 29.5305C139.316 29.0923 138.631 28.5992 138.138 28.0514C137.645 27.5035 137.344 27.0721 137.234 26.7571V38.241ZM146.356 21.272C146.356 20.3269 146.15 19.4984 145.739 18.7862C145.342 18.0603 144.808 17.4988 144.137 17.1016C143.466 16.6907 142.719 16.4853 141.898 16.4853C141.035 16.4853 140.254 16.6907 139.556 17.1016C138.857 17.5125 138.302 18.0808 137.892 18.8067C137.494 19.5189 137.296 20.3406 137.296 21.272C137.296 22.2033 137.494 23.0319 137.892 23.7577C138.302 24.4699 138.857 25.0315 139.556 25.4423C140.254 25.8395 141.035 26.0381 141.898 26.0381C142.719 26.0381 143.466 25.8395 144.137 25.4423C144.808 25.0451 145.342 24.4905 145.739 23.7783C146.15 23.0524 146.356 22.217 146.356 21.272Z" fill="black"/>
<path d="M121.66 12.3354C122.92 12.3354 124.016 12.6025 124.947 13.1367C125.892 13.6708 126.625 14.4925 127.146 15.6019C127.68 16.6976 127.947 18.1082 127.947 19.8339V29.6949H122.811V20.6762C122.811 19.2518 122.599 18.1425 122.174 17.3481C121.763 16.5538 120.976 16.1566 119.812 16.1566C119.154 16.1566 118.552 16.3346 118.004 16.6907C117.456 17.0331 117.018 17.5399 116.689 18.2109C116.374 18.882 116.216 19.7038 116.216 20.6762V29.6949H111.409V20.6762C111.409 19.2518 111.169 18.1425 110.69 17.3481C110.211 16.5538 109.451 16.1566 108.41 16.1566C107.739 16.1566 107.129 16.3278 106.581 16.6702C106.047 17.0126 105.623 17.5193 105.308 18.1904C105.006 18.8478 104.856 19.6764 104.856 20.6762V29.6949H99.6787V12.8285H104.856V15.2937C105.006 14.8692 105.349 14.4309 105.883 13.9789C106.431 13.527 107.109 13.1435 107.917 12.8285C108.725 12.4998 109.594 12.3354 110.526 12.3354C111.539 12.3354 112.382 12.5066 113.053 12.849C113.724 13.1914 114.265 13.6297 114.676 14.1638C115.1 14.6843 115.422 15.2321 115.641 15.8073C115.833 15.2732 116.21 14.7391 116.771 14.2049C117.333 13.6708 118.038 13.2257 118.887 12.8696C119.736 12.5135 120.661 12.3354 121.66 12.3354Z" fill="black"/>
<path d="M90.1973 29.6949V26.7571C90.074 27.0584 89.759 27.483 89.2523 28.0308C88.7455 28.5787 88.0607 29.0786 87.1979 29.5305C86.3488 29.9688 85.349 30.1879 84.1985 30.1879C82.5824 30.1879 81.1512 29.8044 79.9049 29.0375C78.6586 28.2568 77.6793 27.1954 76.9672 25.8532C76.2687 24.4973 75.9194 22.9702 75.9194 21.272C75.9194 19.5737 76.2687 18.0534 76.9672 16.7113C77.6793 15.3554 78.6586 14.2871 79.9049 13.5064C81.1512 12.7258 82.5824 12.3354 84.1985 12.3354C85.3216 12.3354 86.294 12.5272 87.1157 12.9107C87.9512 13.2805 88.6223 13.7187 89.129 14.2255C89.6495 14.7185 89.985 15.1636 90.1357 15.5608V12.8285H95.3127V29.6949H90.1973ZM81.0348 21.272C81.0348 22.217 81.2471 23.0524 81.6717 23.7783C82.0962 24.4905 82.6578 25.0451 83.3562 25.4423C84.0547 25.8395 84.8148 26.0381 85.6366 26.0381C86.4994 26.0381 87.2664 25.8395 87.9375 25.4423C88.6086 25.0315 89.1359 24.4699 89.5193 23.7577C89.9165 23.0319 90.1151 22.2033 90.1151 21.272C90.1151 20.3406 89.9165 19.5189 89.5193 18.8067C89.1359 18.0808 88.6086 17.5125 87.9375 17.1016C87.2664 16.6907 86.4994 16.4853 85.6366 16.4853C84.8148 16.4853 84.0547 16.6907 83.3562 17.1016C82.6578 17.4988 82.0962 18.0603 81.6717 18.7862C81.2471 19.4984 81.0348 20.3269 81.0348 21.272Z" fill="black"/>
<path d="M68.2826 26.0381C69.1728 26.0381 69.8987 25.8874 70.4602 25.5861C71.0217 25.2848 71.3915 25.0588 71.5696 24.9082L73.9937 28.5033C73.802 28.654 73.4459 28.8663 72.9254 29.1402C72.405 29.4141 71.7408 29.6538 70.9327 29.8592C70.1384 30.0784 69.2276 30.1879 68.2004 30.1879C66.4199 30.1879 64.8244 29.8318 63.4137 29.1196C62.0031 28.3938 60.8869 27.3666 60.0651 26.0381C59.2571 24.6959 58.853 23.1003 58.853 21.2514C58.853 19.3888 59.2571 17.7932 60.0651 16.4647C60.8869 15.1362 62.0031 14.1159 63.4137 13.4037C64.8244 12.6915 66.4199 12.3354 68.2004 12.3354C69.2139 12.3354 70.111 12.445 70.8916 12.6641C71.686 12.8833 72.3502 13.1367 72.8844 13.4243C73.4185 13.6982 73.7883 13.9242 73.9937 14.1022L71.5079 17.7179C71.4121 17.6083 71.2272 17.4577 70.9533 17.2659C70.6793 17.0742 70.3164 16.8962 69.8644 16.7318C69.4262 16.5675 68.8989 16.4853 68.2826 16.4853C67.5293 16.4853 66.8103 16.6839 66.1255 17.081C65.4544 17.4782 64.9066 18.0329 64.482 18.7451C64.0574 19.4573 63.8451 20.2927 63.8451 21.2514C63.8451 22.2101 64.0574 23.0524 64.482 23.7783C64.9066 24.4905 65.4544 25.0451 66.1255 25.4423C66.8103 25.8395 67.5293 26.0381 68.2826 26.0381Z" fill="black"/>
<path d="M167.692 0H167.502C167.028 2.3744 165.223 4.17896 162.849 4.65384V4.84378C165.223 5.31867 167.028 7.1232 167.502 9.49761H167.692C168.167 7.1232 169.972 5.31867 172.346 4.84378V4.65384C169.972 4.17896 168.167 2.3744 167.692 0Z" fill="black"/>
<path fill-rule="evenodd" clip-rule="evenodd" d="M182.062 12.3354C183.185 12.3355 184.157 12.527 184.979 12.9105C185.814 13.2803 186.486 13.7187 186.992 14.2255C187.513 14.7185 187.848 15.1637 187.999 15.5609V12.8284H193.176V33.6388C193.176 36.2159 191.122 38.2409 188.507 38.241H177.114V34.0071H186.66C187.407 34.0071 188.061 33.3627 188.061 32.6264L188.06 26.7571C187.937 27.0584 187.622 27.483 187.115 28.0308C186.609 28.5786 185.924 29.0785 185.061 29.5304C184.212 29.9687 183.212 30.1879 182.062 30.1879C180.446 30.1879 179.014 29.8045 177.768 29.0375C176.522 28.2569 175.542 27.1954 174.83 25.8532C174.132 24.4973 173.783 22.97 173.783 21.2717C173.783 19.5736 174.132 18.0534 174.83 16.7112C175.542 15.3554 176.522 14.2869 177.768 13.5062C179.014 12.7256 180.446 12.3354 182.062 12.3354ZM183.5 16.4852C182.678 16.4852 181.918 16.6907 181.219 17.1016C180.521 17.4988 179.959 18.0602 179.535 18.786C179.11 19.4981 178.898 20.3268 178.898 21.2717C178.898 22.2168 179.11 23.0523 179.535 23.7782C179.96 24.4903 180.521 25.045 181.219 25.4422C181.918 25.8393 182.678 26.0379 183.5 26.0379C184.363 26.0379 185.13 25.8393 185.801 25.4422C186.472 25.0313 186.999 24.4699 187.383 23.7578C187.78 23.0319 187.978 22.2031 187.978 21.2717C187.978 20.3405 187.78 19.5188 187.383 18.8067C186.999 18.0808 186.472 17.5125 185.801 17.1016C185.13 16.6907 184.363 16.4852 183.5 16.4852Z" fill="black"/>
</svg>
