<svg width="116" height="22" viewBox="0 0 116 22" fill="none" xmlns="http://www.w3.org/2000/svg">
<path d="M10.585 17.8897V18.3434L21.1602 15.7378V11.6049C12.5855 10.1605 10.585 14.513 10.585 17.8897Z" fill="black"/>
<path d="M10.8003 5.2177C11.6319 8.3357 14.8651 10.1997 18.0787 9.75563L15.6819 0.0942383H9.9541C9.9541 0.0942383 10.0275 2.32417 10.8003 5.2177Z" fill="black"/>
<path d="M5.13598 10.4191C8.26159 9.58959 10.5752 6.77413 10.5752 3.39752V2.94373L0 5.54937V11.2633C0 11.2633 2.23537 11.1901 5.13598 10.4191Z" fill="black"/>
<path d="M10.3559 16.0694C9.52441 12.9514 6.70206 10.6434 3.31721 10.6434H2.8623L5.47432 21.1929H11.2022C11.2022 21.1929 11.1288 18.963 10.3559 16.0694Z" fill="black"/>
<path d="M110.861 2.97852H113.472V6.4702H115.482V8.65639H113.472V11.7336C113.472 12.1412 113.538 12.4589 113.669 12.6868C113.8 12.9079 114.008 13.0184 114.291 13.0184C114.505 13.0184 114.681 12.977 114.819 12.8941C114.957 12.8043 115.04 12.7421 115.068 12.7076L116 14.5933C115.959 14.6347 115.824 14.7073 115.596 14.8109C115.375 14.9145 115.089 15.0077 114.736 15.0906C114.391 15.1804 114.001 15.2253 113.566 15.2253C112.785 15.2253 112.139 15.0008 111.628 14.5518C111.117 14.096 110.861 13.3914 110.861 12.4382V2.97852Z" fill="black"/>
<path d="M105.13 6.22146C105.71 6.22146 106.277 6.34234 106.829 6.5841C107.382 6.81895 107.834 7.1954 108.186 7.71345C108.546 8.23151 108.725 8.90843 108.725 9.74422V14.9766H106.083V10.2001C106.083 9.50247 105.924 8.98441 105.607 8.64595C105.296 8.30749 104.878 8.13826 104.353 8.13826C104.001 8.13826 103.662 8.23496 103.337 8.42837C103.02 8.61487 102.757 8.87735 102.55 9.21581C102.35 9.54736 102.25 9.92727 102.25 10.3555V14.9766H99.6074V0.719727H102.25V7.82743C102.319 7.59257 102.488 7.35082 102.757 7.10215C103.027 6.85348 103.369 6.64626 103.783 6.48048C104.197 6.3078 104.646 6.22146 105.13 6.22146Z" fill="black"/>
<path d="M83.1387 14.9768V6.47034H85.76V14.9768H83.1387Z" fill="black"/>
<path d="M80.7603 14.9766H78.1182V0.719727H80.7603V14.9766Z" fill="black"/>
<path d="M69.2126 19.2866H66.6016V6.46998H69.2437V7.848C69.3265 7.64769 69.5061 7.41974 69.7824 7.16417C70.0587 6.9086 70.4179 6.68756 70.86 6.50106C71.309 6.31456 71.8201 6.22131 72.3934 6.22131C73.2016 6.22131 73.9062 6.41817 74.5071 6.81189C75.1081 7.20562 75.5709 7.74439 75.8955 8.42822C76.2271 9.10515 76.3929 9.87187 76.3929 10.7284C76.3929 11.5849 76.2202 12.3551 75.8748 13.0389C75.5294 13.7158 75.0494 14.2511 74.4346 14.6449C73.8198 15.0317 73.1049 15.2251 72.2898 15.2251C71.6751 15.2251 71.1467 15.1146 70.7046 14.8935C70.2625 14.6725 69.9171 14.4238 69.6685 14.1475C69.4198 13.8712 69.2678 13.6537 69.2126 13.4948V19.2866ZM73.8129 10.7284C73.8129 10.2518 73.7093 9.83387 73.5021 9.47469C73.3018 9.1086 73.0324 8.8254 72.6939 8.62508C72.3555 8.41786 71.979 8.31425 71.5646 8.31425C71.1294 8.31425 70.7357 8.41786 70.3834 8.62508C70.0311 8.8323 69.7514 9.11896 69.5441 9.48505C69.3438 9.84424 69.2437 10.2587 69.2437 10.7284C69.2437 11.1981 69.3438 11.616 69.5441 11.9821C69.7514 12.3413 70.0311 12.6245 70.3834 12.8317C70.7357 13.032 71.1294 13.1322 71.5646 13.1322C71.979 13.1322 72.3555 13.032 72.6939 12.8317C73.0324 12.6314 73.3018 12.3516 73.5021 11.9924C73.7093 11.6263 73.8129 11.205 73.8129 10.7284Z" fill="black"/>
<path d="M61.3589 6.22131C61.9944 6.22131 62.547 6.35601 63.0167 6.6254C63.4933 6.89478 63.8628 7.30923 64.1253 7.86872C64.3947 8.42132 64.5294 9.13278 64.5294 10.0031V14.9764H61.9391V10.4279C61.9391 9.70954 61.8321 9.15004 61.6179 8.74942C61.4107 8.34879 61.0135 8.14847 60.4264 8.14847C60.0948 8.14847 59.7909 8.23827 59.5146 8.41786C59.2383 8.59055 59.0173 8.84612 58.8515 9.18458C58.6926 9.52304 58.6132 9.93749 58.6132 10.4279V14.9764H56.1887V10.4279C56.1887 9.70954 56.0678 9.15004 55.826 8.74942C55.5843 8.34879 55.2009 8.14847 54.6759 8.14847C54.3375 8.14847 54.0301 8.23482 53.7538 8.4075C53.4844 8.58019 53.2703 8.83576 53.1114 9.17422C52.9595 9.50577 52.8835 9.92367 52.8835 10.4279V14.9764H50.2725V6.46998H52.8835V7.71331C52.9595 7.49918 53.1321 7.27814 53.4015 7.0502C53.6778 6.82226 54.0197 6.62885 54.4273 6.46998C54.8348 6.3042 55.2734 6.22131 55.7431 6.22131C56.2543 6.22131 56.6791 6.30766 57.0176 6.48034C57.356 6.65303 57.6289 6.87406 57.8361 7.14345C58.0502 7.40593 58.2126 7.68222 58.3231 7.97233C58.4198 7.70295 58.6097 7.43356 58.8929 7.16417C59.1761 6.89478 59.5319 6.67029 59.9601 6.4907C60.3884 6.31111 60.8547 6.22131 61.3589 6.22131Z" fill="black"/>
<path d="M45.4901 14.9764V13.4948C45.4279 13.6468 45.269 13.8609 45.0135 14.1372C44.7579 14.4135 44.4125 14.6656 43.9773 14.8935C43.5491 15.1146 43.0448 15.2251 42.4646 15.2251C41.6495 15.2251 40.9277 15.0317 40.2991 14.6449C39.6705 14.2511 39.1767 13.7158 38.8175 13.0389C38.4652 12.3551 38.2891 11.5849 38.2891 10.7284C38.2891 9.87187 38.4652 9.10515 38.8175 8.42822C39.1767 7.74439 39.6705 7.20562 40.2991 6.81189C40.9277 6.41817 41.6495 6.22131 42.4646 6.22131C43.031 6.22131 43.5214 6.31802 43.9359 6.51142C44.3572 6.69792 44.6957 6.91896 44.9513 7.17453C45.2138 7.4232 45.383 7.64769 45.459 7.848V6.46998H48.07V14.9764H45.4901ZM40.869 10.7284C40.869 11.205 40.9761 11.6263 41.1902 11.9924C41.4043 12.3516 41.6875 12.6314 42.0398 12.8317C42.3921 13.032 42.7754 13.1322 43.1899 13.1322C43.6251 13.1322 44.0119 13.032 44.3503 12.8317C44.6888 12.6245 44.9547 12.3413 45.1481 11.9821C45.3485 11.616 45.4486 11.1981 45.4486 10.7284C45.4486 10.2587 45.3485 9.84424 45.1481 9.48505C44.9547 9.11896 44.6888 8.83231 44.3503 8.62508C44.0119 8.41786 43.6251 8.31425 43.1899 8.31425C42.7754 8.31425 42.3921 8.41786 42.0398 8.62508C41.6875 8.8254 41.4043 9.1086 41.1902 9.47469C40.9761 9.83388 40.869 10.2518 40.869 10.7284Z" fill="black"/>
<path d="M34.4384 13.1322C34.8874 13.1322 35.2535 13.0562 35.5367 12.9042C35.8199 12.7522 36.0064 12.6383 36.0962 12.5623L37.3188 14.3755C37.2221 14.4515 37.0425 14.5585 36.78 14.6967C36.5175 14.8348 36.1825 14.9557 35.775 15.0593C35.3743 15.1698 34.915 15.2251 34.3969 15.2251C33.499 15.2251 32.6943 15.0455 31.9828 14.6863C31.2713 14.3202 30.7084 13.8022 30.2939 13.1322C29.8864 12.4552 29.6826 11.6505 29.6826 10.718C29.6826 9.77862 29.8864 8.97391 30.2939 8.30389C30.7084 7.63387 31.2713 7.11927 31.9828 6.76009C32.6943 6.40091 33.499 6.22131 34.3969 6.22131C34.9081 6.22131 35.3605 6.27657 35.7542 6.38709C36.1549 6.49761 36.4899 6.6254 36.7593 6.77045C37.0287 6.9086 37.2152 7.02257 37.3188 7.11237L36.0651 8.93592C36.0167 8.88066 35.9235 8.80468 35.7853 8.70797C35.6472 8.61127 35.4641 8.52147 35.2362 8.43858C35.0152 8.3557 34.7492 8.31425 34.4384 8.31425C34.0585 8.31425 33.6958 8.41441 33.3505 8.61472C33.012 8.81504 32.7357 9.09479 32.5216 9.45397C32.3074 9.81315 32.2004 10.2345 32.2004 10.718C32.2004 11.2015 32.3074 11.6263 32.5216 11.9924C32.7357 12.3516 33.012 12.6314 33.3505 12.8317C33.6958 13.032 34.0585 13.1322 34.4384 13.1322Z" fill="black"/>
<path d="M84.5748 0H84.479C84.2395 1.19751 83.3294 2.10763 82.1318 2.34713V2.44293C83.3294 2.68243 84.2395 3.59254 84.479 4.79005H84.5748C84.8143 3.59254 85.7244 2.68243 86.9219 2.44293V2.34713C85.7244 2.10763 84.8143 1.19751 84.5748 0Z" fill="black"/>
<path fill-rule="evenodd" clip-rule="evenodd" d="M91.822 6.22131C92.3884 6.22132 92.8789 6.31793 93.2933 6.51134C93.7147 6.69784 94.0531 6.91897 94.3087 7.17454C94.5711 7.42319 94.7403 7.64772 94.8163 7.84803V6.46991H97.4274V16.9655C97.4274 18.2653 96.3913 19.2866 95.0726 19.2866H89.3268V17.1513H94.1412C94.518 17.1513 94.8477 16.8263 94.8477 16.4549L94.8474 13.4948C94.7853 13.6468 94.6264 13.8609 94.3708 14.1371C94.1153 14.4134 93.7699 14.6656 93.3347 14.8935C92.9065 15.1145 92.4022 15.2251 91.822 15.2251C91.007 15.2251 90.2851 15.0317 89.6565 14.6449C89.028 14.2512 88.534 13.7158 88.1748 13.0389C87.8225 12.3551 87.6465 11.5848 87.6465 10.7283C87.6465 9.87181 87.8226 9.10511 88.1748 8.42822C88.534 7.74439 89.028 7.20551 89.6565 6.81179C90.2851 6.41809 91.007 6.22131 91.822 6.22131ZM92.5472 8.31421C92.1328 8.31422 91.7494 8.41788 91.3971 8.62509C91.0449 8.82539 90.7617 9.10856 90.5476 9.4746C90.3335 9.83376 90.2265 10.2517 90.2264 10.7283C90.2264 11.2049 90.3335 11.6263 90.5476 11.9924C90.7617 12.3515 91.0449 12.6313 91.3971 12.8316C91.7494 13.0319 92.1328 13.132 92.5472 13.1321C92.9824 13.1321 93.3693 13.0319 93.7078 12.8316C94.0462 12.6244 94.3122 12.3412 94.5056 11.9821C94.7059 11.616 94.806 11.198 94.806 10.7283C94.806 10.2586 94.7059 9.84419 94.5056 9.48502C94.3122 9.11895 94.0462 8.83231 93.7078 8.62509C93.3693 8.41787 92.9824 8.31421 92.5472 8.31421Z" fill="black"/>
</svg>
