<svg width="72" height="18" viewBox="0 0 72 18" fill="none" xmlns="http://www.w3.org/2000/svg">
<path d="M12.4138 5.01165C12.4138 6.3815 11.9255 7.55923 10.949 8.54486C9.97241 9.53048 8.80552 10.0233 7.44828 10.0233H2.48277V17.5408H0V0H7.44828C8.82207 0 9.98898 0.492811 10.949 1.47844C11.9255 2.44735 12.4138 3.62508 12.4138 5.01165ZM9.93105 5.01165C9.93105 4.32672 9.68277 3.74203 9.18622 3.25757C8.70621 2.75641 8.12691 2.50582 7.44828 2.50582H2.48277V7.51746H7.44828C8.12691 7.51746 8.70621 7.27524 9.18622 6.79078C9.68277 6.28962 9.93105 5.69657 9.93105 5.01165ZM17.3794 12.5291V17.5408H14.8966V9.39683L19.5641 0H22.6677L27.3103 9.39683V17.5408H24.8277V12.5291H17.3794ZM21.1035 2.50582L17.3794 10.0233H24.8277L21.1035 2.50582ZM42.2069 2.50582H37.2414V17.5408H34.7586V2.50582H29.7931V0H42.2069V2.50582ZM57.1034 17.5408H44.6897V15.0349H49.6552V2.50582H44.6897V0H57.1034V2.50582H52.138V15.0349H57.1034V17.5408ZM72 12.5291C72 13.899 71.5119 15.0767 70.5352 16.0623C69.5586 17.0479 68.3918 17.5408 67.0345 17.5408H64.5517C63.1945 17.5408 62.0276 17.0479 61.051 16.0623C60.0746 15.0767 59.5863 13.899 59.5863 12.5291V5.01165C59.5863 3.6418 60.0746 2.46406 61.051 1.47844C62.0276 0.492811 63.1945 0 64.5517 0H67.0345C68.3918 0 69.5586 0.492811 70.5352 1.47844C71.5119 2.46406 72 3.6418 72 5.01165V12.5291ZM69.5173 12.5291V5.01165C69.5173 4.32672 69.269 3.74203 68.7725 3.25757C68.2924 2.75641 67.7132 2.50582 67.0345 2.50582H64.5517C63.8732 2.50582 63.2855 2.75641 62.789 3.25757C62.309 3.74203 62.0691 4.32672 62.0691 5.01165V12.5291C62.0691 13.214 62.309 13.8071 62.789 14.3082C63.2855 14.7927 63.8732 15.0349 64.5517 15.0349H67.0345C67.7132 15.0349 68.2924 14.7927 68.7725 14.3082C69.269 13.8071 69.5173 13.214 69.5173 12.5291Z" fill="#F7F7F7"/>
</svg>
