<svg width="61" height="15" viewBox="0 0 61 15" fill="none" xmlns="http://www.w3.org/2000/svg">
<path d="M10.4415 4.08545C10.4415 5.20214 10.0308 6.16222 9.20941 6.96569C8.38801 7.76916 7.40651 8.1709 6.26491 8.1709H2.08831V14.2991H0V0H6.26491C7.42043 0 8.40194 0.401735 9.20941 1.20521C10.0308 1.99506 10.4415 2.95514 10.4415 4.08545ZM8.35321 4.08545C8.35321 3.5271 8.14438 3.05047 7.72672 2.65554C7.32297 2.247 6.83572 2.04273 6.26491 2.04273H2.08831V6.12817H6.26491C6.83572 6.12817 7.32297 5.93071 7.72672 5.53578C8.14438 5.12724 8.35321 4.64379 8.35321 4.08545ZM14.6182 10.2136V14.2991H12.5298V7.66021L16.4558 0H19.0662L22.9713 7.66021V14.2991H20.8831V10.2136H14.6182ZM17.7506 2.04273L14.6182 8.1709H20.8831L17.7506 2.04273ZM35.5011 2.04273H31.3245V14.2991H29.2362V2.04273H25.0596V0H35.5011V2.04273ZM48.0309 14.2991H37.5894V12.2563H41.766V2.04273H37.5894V0H48.0309V2.04273H43.8543V12.2563H48.0309V14.2991ZM60.5607 10.2136C60.5607 11.3303 60.1501 12.2904 59.3287 13.0939C58.5072 13.8973 57.5258 14.2991 56.3842 14.2991H54.2958C53.1542 14.2991 52.1728 13.8973 51.3513 13.0939C50.53 12.2904 50.1193 11.3303 50.1193 10.2136V4.08545C50.1193 2.96877 50.53 2.00868 51.3513 1.20521C52.1728 0.401735 53.1542 0 54.2958 0H56.3842C57.5258 0 58.5072 0.401735 59.3287 1.20521C60.1501 2.00868 60.5607 2.96877 60.5607 4.08545V10.2136ZM58.4725 10.2136V4.08545C58.4725 3.5271 58.2636 3.05047 57.846 2.65554C57.4422 2.247 56.955 2.04273 56.3842 2.04273H54.2958C53.7251 2.04273 53.2308 2.247 52.8132 2.65554C52.4095 3.05047 52.2076 3.5271 52.2076 4.08545V10.2136C52.2076 10.772 52.4095 11.2554 52.8132 11.664C53.2308 12.0589 53.7251 12.2563 54.2958 12.2563H56.3842C56.955 12.2563 57.4422 12.0589 57.846 11.664C58.2636 11.2554 58.4725 10.772 58.4725 10.2136Z" fill="#F7F7F7"/>
</svg>
