<svg width="92" height="22" viewBox="0 0 92 22" fill="none" xmlns="http://www.w3.org/2000/svg">
<path d="M15.7783 6.17357C15.7783 7.86101 15.1577 9.31179 13.9165 10.5259C12.6752 11.7401 11.1921 12.3471 9.46698 12.3471H3.15567V21.6075H0V0H9.46698C11.2131 0 12.6963 0.607066 13.9165 1.8212C15.1577 3.01476 15.7783 4.46554 15.7783 6.17357ZM12.6226 6.17357C12.6226 5.32984 12.3071 4.60959 11.6759 4.01282C11.0658 3.39547 10.3295 3.08678 9.46698 3.08678H3.15567V9.26034H9.46698C10.3295 9.26034 11.0658 8.96196 11.6759 8.36518C12.3071 7.74783 12.6226 7.01728 12.6226 6.17357ZM22.0897 15.4339V21.6075H18.934V11.5754L24.8665 0H28.8112L34.7122 11.5754V21.6075H31.5567V15.4339H22.0897ZM26.8232 3.08678L22.0897 12.3471H31.5567L26.8232 3.08678ZM53.6461 3.08678H47.3349V21.6075H44.1791V3.08678H37.8679V0H53.6461V3.08678ZM72.5801 21.6075H56.8018V18.5207H63.1131V3.08678H56.8018V0H72.5801V3.08678H66.2688V18.5207H72.5801V21.6075ZM91.514 15.4339C91.514 17.1214 90.8936 18.5721 89.6523 19.7863C88.4109 21.0004 86.9278 21.6075 85.2028 21.6075H82.047C80.322 21.6075 78.8389 21.0004 77.5976 19.7863C76.3565 18.5721 75.7358 17.1214 75.7358 15.4339V6.17357C75.7358 4.48613 76.3565 3.03533 77.5976 1.8212C78.8389 0.607066 80.322 0 82.047 0H85.2028C86.9278 0 88.4109 0.607066 89.6523 1.8212C90.8936 3.03533 91.514 4.48613 91.514 6.17357V15.4339ZM88.3585 15.4339V6.17357C88.3585 5.32984 88.0429 4.60959 87.4118 4.01282C86.8015 3.39547 86.0654 3.08678 85.2028 3.08678H82.047C81.1846 3.08678 80.4377 3.39547 79.8066 4.01282C79.1965 4.60959 78.8915 5.32984 78.8915 6.17357V15.4339C78.8915 16.2776 79.1965 17.0082 79.8066 17.6255C80.4377 18.2223 81.1846 18.5207 82.047 18.5207H85.2028C86.0654 18.5207 86.8015 18.2223 87.4118 17.6255C88.0429 17.0082 88.3585 16.2776 88.3585 15.4339Z" fill="#F7F7F7"/>
</svg>
