<svg width="79" height="19" viewBox="0 0 79 19" fill="none" xmlns="http://www.w3.org/2000/svg">
<path d="M13.5738 5.39683C13.5738 6.87196 13.0399 8.14021 11.9721 9.20159C10.9043 10.263 9.62837 10.7937 8.1443 10.7937H2.71477V18.8889H0V0H8.1443C9.64647 0 10.9224 0.530687 11.9721 1.59206C13.0399 2.63545 13.5738 3.9037 13.5738 5.39683ZM10.8591 5.39683C10.8591 4.65926 10.5876 4.02963 10.0446 3.50794C9.51977 2.96826 8.88634 2.69841 8.1443 2.69841H2.71477V8.09523H8.1443C8.88634 8.09523 9.51977 7.83439 10.0446 7.3127C10.5876 6.77302 10.8591 6.13439 10.8591 5.39683ZM19.0034 13.4921V18.8889H16.2886V10.119L21.3923 0H24.7859L29.8624 10.119V18.8889H27.1477V13.4921H19.0034ZM23.0756 2.69841L19.0034 10.7937H27.1477L23.0756 2.69841ZM46.151 2.69841H40.7215V18.8889H38.0067V2.69841H32.5772V0H46.151V2.69841ZM62.4396 18.8889H48.8658V16.1905H54.2953V2.69841H48.8658V0H62.4396V2.69841H57.0101V16.1905H62.4396V18.8889ZM78.7282 13.4921C78.7282 14.9672 78.1944 16.2354 77.1265 17.2968C76.0586 18.3582 74.7827 18.8889 73.2987 18.8889H70.5839C69.0998 18.8889 67.8239 18.3582 66.756 17.2968C65.6883 16.2354 65.1544 14.9672 65.1544 13.4921V5.39683C65.1544 3.9217 65.6883 2.65344 66.756 1.59206C67.8239 0.530687 69.0998 0 70.5839 0H73.2987C74.7827 0 76.0586 0.530687 77.1265 1.59206C78.1944 2.65344 78.7282 3.9217 78.7282 5.39683V13.4921ZM76.0135 13.4921V5.39683C76.0135 4.65926 75.742 4.02963 75.1991 3.50794C74.6741 2.96826 74.0408 2.69841 73.2987 2.69841H70.5839C69.8419 2.69841 69.1993 2.96826 68.6564 3.50794C68.1316 4.02963 67.8692 4.65926 67.8692 5.39683V13.4921C67.8692 14.2296 68.1316 14.8683 68.6564 15.4079C69.1993 15.9296 69.8419 16.1905 70.5839 16.1905H73.2987C74.0408 16.1905 74.6741 15.9296 75.1991 15.4079C75.742 14.8683 76.0135 14.2296 76.0135 13.4921Z" fill="#F7F7F7"/>
</svg>
