<svg width="72" height="17" viewBox="0 0 72 17" fill="none" xmlns="http://www.w3.org/2000/svg">
<path d="M12.4138 4.85715C12.4138 6.18477 11.9255 7.32619 10.949 8.28144C9.97241 9.23666 8.80552 9.71429 7.44828 9.71429H2.48277V17H0V0H7.44828C8.82207 0 9.98898 0.477618 10.949 1.43286C11.9255 2.3719 12.4138 3.51333 12.4138 4.85715ZM9.93105 4.85715C9.93105 4.19333 9.68277 3.62666 9.18622 3.15714C8.70621 2.67144 8.12691 2.42857 7.44828 2.42857H2.48277V7.28571H7.44828C8.12691 7.28571 8.70621 7.05095 9.18622 6.58143C9.68277 6.09572 9.93105 5.52095 9.93105 4.85715ZM17.3794 12.1429V17H14.8966V9.10714L19.5641 0H22.6677L27.3103 9.10714V17H24.8277V12.1429H17.3794ZM21.1035 2.42857L17.3794 9.71429H24.8277L21.1035 2.42857ZM42.2069 2.42857H37.2414V17H34.7586V2.42857H29.7931V0H42.2069V2.42857ZM57.1034 17H44.6897V14.5714H49.6552V2.42857H44.6897V0H57.1034V2.42857H52.138V14.5714H57.1034V17ZM72 12.1429C72 13.4705 71.5119 14.6119 70.5352 15.5671C69.5586 16.5223 68.3918 17 67.0345 17H64.5517C63.1945 17 62.0276 16.5223 61.051 15.5671C60.0746 14.6119 59.5863 13.4705 59.5863 12.1429V4.85715C59.5863 3.52953 60.0746 2.38809 61.051 1.43286C62.0276 0.477618 63.1945 0 64.5517 0H67.0345C68.3918 0 69.5586 0.477618 70.5352 1.43286C71.5119 2.38809 72 3.52953 72 4.85715V12.1429ZM69.5173 12.1429V4.85715C69.5173 4.19333 69.269 3.62666 68.7725 3.15714C68.2924 2.67144 67.7132 2.42857 67.0345 2.42857H64.5517C63.8732 2.42857 63.2855 2.67144 62.789 3.15714C62.309 3.62666 62.0691 4.19333 62.0691 4.85715V12.1429C62.0691 12.8067 62.309 13.3814 62.789 13.8671C63.2855 14.3367 63.8732 14.5714 64.5517 14.5714H67.0345C67.7132 14.5714 68.2924 14.3367 68.7725 13.8671C69.269 13.3814 69.5173 12.8067 69.5173 12.1429Z" fill="#F7F7F7"/>
</svg>
